<svg class="fill-current hover:text-purple-main w-4 h-4" xmlns="http://www.w3.org/2000/svg" viewBox="0 0 14 11"><path d="M13.735 4.035a.165.165 0 01.265.127V9.7c0 .718-.588 1.3-1.313 1.3H1.313A1.307 1.307 0 010 9.7V4.165c0-.136.156-.212.265-.128.613.472 1.425 1.07 4.214 3.077.577.417 1.55 1.294 2.521 1.289.976.008 1.969-.888 2.524-1.29 2.789-2.006 3.598-2.607 4.21-3.078zM7 7c.634.01 1.548-.799 2.007-1.132 3.629-2.633 3.905-2.863 4.741-3.52A.654.654 0 0014 1.833v-.52C14 .588 13.412 0 12.687 0H1.313C.588 0 0 .588 0 1.312v.52c0 .202.093.391.252.517.836.653 1.112.886 4.741 3.519C5.453 6.2 6.366 7.01 7 7z" fill-rule="nonzero"/></svg>